<svg width="652" height="370" viewBox="0 0 652 370" fill="none" xmlns="http://www.w3.org/2000/svg">
<path d="M0.5 36.5V36.5C14.7714 66.7217 50.2754 80.3908 81.1289 67.5422L208.5 14.5L242.9 4.97854C257.114 1.04429 272.036 0.390626 286.54 3.06689V3.06689C324.244 10.0241 354.354 38.4611 363.454 75.7058L368.222 95.2223C381.965 151.475 431.659 191.569 489.545 193.11L587.857 195.726C624.429 196.7 653.055 227.546 651.299 264.09V264.09C650.185 287.258 636.857 308.093 616.29 318.816L609.359 322.431C590.286 332.376 567.978 334.1 547.603 327.203L500.28 311.183C462.751 298.479 424.993 329.764 430.5 369V369" stroke="#F9A80B" stroke-dasharray="9 9"/>
</svg>
